<?xml version="1.0" encoding="UTF-8"?>
<svg xmlns="http://www.w3.org/2000/svg" xmlns:xlink="http://www.w3.org/1999/xlink" width="50px" height="50px" viewBox="0 0 50 50" version="1.1">
<defs>
<filter id="alpha" filterUnits="objectBoundingBox" x="0%" y="0%" width="100%" height="100%">
  <feColorMatrix type="matrix" in="SourceGraphic" values="0 0 0 0 1 0 0 0 0 1 0 0 0 0 1 0 0 0 1 0"/>
</filter>
<mask id="mask0">
  <g filter="url(#alpha)">
<rect x="0" y="0" width="4" height="4" style="fill:rgb(0%,0%,0%);fill-opacity:0.301961;stroke:none;"/>
  </g>
</mask>
<clipPath id="clip2">
  <rect x="0" y="0" width="50" height="50"/>
</clipPath>
<g id="surface6" clip-path="url(#clip2)">
<path style="fill:none;stroke-width:1;stroke-linecap:butt;stroke-linejoin:miter;stroke:rgb(30.19608%,72.941178%,80.000001%);stroke-opacity:1;stroke-miterlimit:4;" d="M 0 0 L 0 10 " transform="matrix(0.4,0,0,0.4,0,0)"/>
</g>
<clipPath id="clip1">
  <rect x="0" y="0" width="4" height="4"/>
</clipPath>
<g id="surface8" clip-path="url(#clip1)">
<use xlink:href="#surface6" mask="url(#mask0)"/>
</g>
<pattern id="pattern0" patternUnits="userSpaceOnUse" width="4" height="4" patternTransform="matrix(0.80353,0.80353,-0.80353,0.80353,0,0)">
<use xlink:href="#surface8"/>
</pattern>
</defs>
<g id="surface1">
<path style=" stroke:none;fill-rule:nonzero;fill:url(#pattern0);" d="M 47.726562 25 C 47.726562 12.449219 37.550781 2.273438 25 2.273438 C 12.449219 2.273438 2.273438 12.449219 2.273438 25 C 2.273438 37.550781 12.449219 47.726562 25 47.726562 C 37.550781 47.726562 47.726562 37.550781 47.726562 25 Z M 47.726562 25 "/>
<path style=" stroke:none;fill-rule:nonzero;fill:rgb(36.470589%,78.823531%,85.882354%);fill-opacity:1;" d="M 47.726562 25 C 47.726562 12.449219 37.550781 2.273438 25 2.273438 C 12.449219 2.273438 2.273438 12.449219 2.273438 25 C 2.273438 37.550781 12.449219 47.726562 25 47.726562 C 37.550781 47.726562 47.726562 37.550781 47.726562 25 Z M 47.726562 25 "/>
<path style=" stroke:none;fill-rule:nonzero;fill:rgb(100%,100%,100%);fill-opacity:1;" d="M 19.546875 18.183594 C 19.546875 16.171875 17.917969 14.546875 15.910156 14.546875 C 13.902344 14.546875 12.273438 16.171875 12.273438 18.183594 C 12.273438 20.191406 13.902344 21.816406 15.910156 21.816406 C 17.917969 21.816406 19.546875 20.191406 19.546875 18.183594 Z M 19.546875 18.183594 "/>
<path style=" stroke:none;fill-rule:nonzero;fill:rgb(100%,100%,100%);fill-opacity:1;" d="M 30.910156 18.183594 C 30.910156 16.171875 29.28125 14.546875 27.273438 14.546875 C 25.265625 14.546875 23.636719 16.171875 23.636719 18.183594 C 23.636719 20.191406 25.265625 21.816406 27.273438 21.816406 C 29.28125 21.816406 30.910156 20.191406 30.910156 18.183594 Z M 30.910156 18.183594 "/>
<path style=" stroke:none;fill-rule:nonzero;fill:rgb(100%,100%,100%);fill-opacity:1;" d="M 37.726562 18.183594 C 37.726562 16.171875 36.097656 14.546875 34.089844 14.546875 C 32.082031 14.546875 30.453125 16.171875 30.453125 18.183594 C 30.453125 20.191406 32.082031 21.816406 34.089844 21.816406 C 36.097656 21.816406 37.726562 20.191406 37.726562 18.183594 Z M 37.726562 18.183594 "/>
<path style="fill-rule:nonzero;fill:rgb(100%,100%,100%);fill-opacity:1;stroke-width:3;stroke-linecap:butt;stroke-linejoin:miter;stroke:rgb(100%,100%,100%);stroke-opacity:1;stroke-miterlimit:4;" d="M 30.000781 60.001563 C 36.669531 53.332813 43.329688 53.332813 49.998438 60.001563 C 56.667188 66.670313 63.335938 66.670313 69.996094 60.001563 C 76.664844 53.332813 81.666406 53.332813 85.000781 60.001563 " transform="matrix(0.454545,0,0,0.454545,0,0)"/>
<path style=" stroke:none;fill-rule:nonzero;fill:rgb(100%,100%,100%);fill-opacity:1;" d="M 25.910156 34.089844 C 25.910156 31.078125 23.46875 28.636719 20.453125 28.636719 C 17.441406 28.636719 15 31.078125 15 34.089844 C 15 37.101562 17.441406 39.546875 20.453125 39.546875 C 23.46875 39.546875 25.910156 37.101562 25.910156 34.089844 Z M 25.910156 34.089844 "/>
<path style=" stroke:none;fill-rule:nonzero;fill:rgb(100%,100%,100%);fill-opacity:1;" d="M 35 34.089844 C 35 31.078125 32.558594 28.636719 29.546875 28.636719 C 26.53125 28.636719 24.089844 31.078125 24.089844 34.089844 C 24.089844 37.101562 26.53125 39.546875 29.546875 39.546875 C 32.558594 39.546875 35 37.101562 35 34.089844 Z M 35 34.089844 "/>
</g>
</svg>
