<?xml version="1.0" encoding="UTF-8"?>
<svg xmlns="http://www.w3.org/2000/svg" xmlns:xlink="http://www.w3.org/1999/xlink" width="50px" height="50px" viewBox="0 0 50 50" version="1.1">
<defs>
<filter id="alpha" filterUnits="objectBoundingBox" x="0%" y="0%" width="100%" height="100%">
  <feColorMatrix type="matrix" in="SourceGraphic" values="0 0 0 0 1 0 0 0 0 1 0 0 0 0 1 0 0 0 1 0"/>
</filter>
<mask id="mask0">
  <g filter="url(#alpha)">
<rect x="0" y="0" width="4" height="4" style="fill:rgb(0%,0%,0%);fill-opacity:0.301961;stroke:none;"/>
  </g>
</mask>
<clipPath id="clip2">
  <rect x="0" y="0" width="50" height="50"/>
</clipPath>
<g id="surface6" clip-path="url(#clip2)">
<path style="fill:none;stroke-width:1;stroke-linecap:butt;stroke-linejoin:miter;stroke:rgb(90.980393%,65.882355%,48.627451%);stroke-opacity:1;stroke-miterlimit:4;" d="M 0 0 L 0 10 " transform="matrix(0.4,0,0,0.4,0,0)"/>
</g>
<clipPath id="clip1">
  <rect x="0" y="0" width="4" height="4"/>
</clipPath>
<g id="surface8" clip-path="url(#clip1)">
<use xlink:href="#surface6" mask="url(#mask0)"/>
</g>
<pattern id="pattern0" patternUnits="userSpaceOnUse" width="4" height="4" patternTransform="matrix(0.80353,0.80353,-0.80353,0.80353,-95.454545,0)">
<use xlink:href="#surface8"/>
</pattern>
</defs>
<g id="surface1">
<path style=" stroke:none;fill-rule:nonzero;fill:url(#pattern0);" d="M 47.726562 25 C 47.726562 12.449219 37.550781 2.273438 25 2.273438 C 12.449219 2.273438 2.273438 12.449219 2.273438 25 C 2.273438 37.550781 12.449219 47.726562 25 47.726562 C 37.550781 47.726562 47.726562 37.550781 47.726562 25 Z M 47.726562 25 "/>
<path style=" stroke:none;fill-rule:nonzero;fill:rgb(96.078432%,72.156864%,54.901963%);fill-opacity:1;" d="M 47.726562 25 C 47.726562 12.449219 37.550781 2.273438 25 2.273438 C 12.449219 2.273438 2.273438 12.449219 2.273438 25 C 2.273438 37.550781 12.449219 47.726562 25 47.726562 C 37.550781 47.726562 47.726562 37.550781 47.726562 25 Z M 47.726562 25 "/>
<path style=" stroke:none;fill-rule:nonzero;fill:rgb(100%,100%,100%);fill-opacity:1;" d="M 17.726562 11.363281 C 17.726562 10.359375 16.914062 9.546875 15.910156 9.546875 C 14.90625 9.546875 14.089844 10.359375 14.089844 11.363281 C 14.089844 12.367188 14.90625 13.183594 15.910156 13.183594 C 16.914062 13.183594 17.726562 12.367188 17.726562 11.363281 Z M 17.726562 11.363281 "/>
<path style=" stroke:none;fill-rule:nonzero;fill:rgb(100%,100%,100%);fill-opacity:1;" d="M 27.273438 9.089844 C 27.273438 7.835938 26.253906 6.816406 25 6.816406 C 23.746094 6.816406 22.726562 7.835938 22.726562 9.089844 C 22.726562 10.347656 23.746094 11.363281 25 11.363281 C 26.253906 11.363281 27.273438 10.347656 27.273438 9.089844 Z M 27.273438 9.089844 "/>
<path style=" stroke:none;fill-rule:nonzero;fill:rgb(100%,100%,100%);fill-opacity:1;" d="M 33.636719 11.363281 C 33.636719 10.359375 32.824219 9.546875 31.816406 9.546875 C 30.8125 9.546875 30 10.359375 30 11.363281 C 30 12.367188 30.8125 13.183594 31.816406 13.183594 C 32.824219 13.183594 33.636719 12.367188 33.636719 11.363281 Z M 33.636719 11.363281 "/>
<path style="fill:none;stroke-width:2;stroke-linecap:butt;stroke-linejoin:miter;stroke:rgb(100%,100%,100%);stroke-opacity:1;stroke-dasharray:2,2;stroke-miterlimit:4;" d="M 245.002344 32.003125 L 245.002344 55 " transform="matrix(0.454545,0,0,0.454545,-95.454545,0)"/>
<path style="fill:none;stroke-width:2;stroke-linecap:butt;stroke-linejoin:miter;stroke:rgb(100%,100%,100%);stroke-opacity:1;stroke-dasharray:2,2;stroke-miterlimit:4;" d="M 265 27.998438 L 265 60.001563 " transform="matrix(0.454545,0,0,0.454545,-95.454545,0)"/>
<path style="fill:none;stroke-width:2;stroke-linecap:butt;stroke-linejoin:miter;stroke:rgb(100%,100%,100%);stroke-opacity:1;stroke-dasharray:2,2;stroke-miterlimit:4;" d="M 279.996094 32.003125 L 279.996094 57.999219 " transform="matrix(0.454545,0,0,0.454545,-95.454545,0)"/>
<path style=" stroke:none;fill-rule:nonzero;fill:rgb(100%,100%,100%);fill-opacity:1;" d="M 10 34.089844 L 35.453125 34.089844 C 35.957031 34.089844 36.363281 34.496094 36.363281 35 L 36.363281 40 C 36.363281 40.503906 35.957031 40.910156 35.453125 40.910156 L 10 40.910156 C 9.496094 40.910156 9.089844 40.503906 9.089844 40 L 9.089844 35 C 9.089844 34.496094 9.496094 34.089844 10 34.089844 Z M 10 34.089844 "/>
<path style=" stroke:none;fill-rule:nonzero;fill:rgb(100%,100%,100%);fill-opacity:1;" d="M 15.910156 30.910156 C 15.910156 29.652344 14.890625 28.636719 13.636719 28.636719 C 12.382812 28.636719 11.363281 29.652344 11.363281 30.910156 C 11.363281 32.164062 12.382812 33.183594 13.636719 33.183594 C 14.890625 33.183594 15.910156 32.164062 15.910156 30.910156 Z M 15.910156 30.910156 "/>
<path style=" stroke:none;fill-rule:nonzero;fill:rgb(100%,100%,100%);fill-opacity:1;" d="M 22.273438 31.816406 C 22.273438 30.8125 21.457031 30 20.453125 30 C 19.449219 30 18.636719 30.8125 18.636719 31.816406 C 18.636719 32.824219 19.449219 33.636719 20.453125 33.636719 C 21.457031 33.636719 22.273438 32.824219 22.273438 31.816406 Z M 22.273438 31.816406 "/>
<path style=" stroke:none;fill-rule:nonzero;fill:rgb(100%,100%,100%);fill-opacity:1;" d="M 29.546875 30.910156 C 29.546875 29.652344 28.527344 28.636719 27.273438 28.636719 C 26.015625 28.636719 25 29.652344 25 30.910156 C 25 32.164062 26.015625 33.183594 27.273438 33.183594 C 28.527344 33.183594 29.546875 32.164062 29.546875 30.910156 Z M 29.546875 30.910156 "/>
<path style=" stroke:none;fill-rule:nonzero;fill:rgb(100%,100%,100%);fill-opacity:1;" d="M 35.910156 31.816406 C 35.910156 30.8125 35.09375 30 34.089844 30 C 33.085938 30 32.273438 30.8125 32.273438 31.816406 C 32.273438 32.824219 33.085938 33.636719 34.089844 33.636719 C 35.09375 33.636719 35.910156 32.824219 35.910156 31.816406 Z M 35.910156 31.816406 "/>
</g>
</svg>
